<svg width="191" height="84" viewBox="0 0 191 84" fill="none" xmlns="http://www.w3.org/2000/svg">
<path fill-rule="evenodd" clip-rule="evenodd" d="M171.981 15.4591C155.643 28.3714 130.704 -0.531748 117.491 4.56229C112.481 6.48916 111.262 13.3772 112.171 22.2585H121.127C121.26 18.7813 121.925 16.1457 123.366 14.9275C132.211 7.44153 161.296 33.2439 171.981 15.4591Z" fill="#231F20"/>
<path fill-rule="evenodd" clip-rule="evenodd" d="M140.103 48.039C155.51 47.3524 155.776 63.9855 160.675 75.7904C165.153 86.5986 170.252 84.6718 174.486 79.2012C181.07 70.6742 189.826 41.2839 190.846 22.2366C191.622 7.7075 189.937 3.49938 174.685 5.31552C160.653 6.97662 147.308 12.8901 136.889 0C140.79 14.7506 156.463 13.8646 168.434 12.115C191.932 8.68201 183.287 46.5994 175.483 64.2513C172.291 71.4494 167.392 79.2455 162.759 66.9755C158.503 55.7908 155.599 45.0047 140.103 48.039Z" fill="#428FBC"/>
<path fill-rule="evenodd" clip-rule="evenodd" d="M137.022 47.109L142.963 37.4746H144.958L137.997 48.7701V57.6736H134.007V49.5896L128.576 41.4391C128.31 41.0405 128.021 40.6639 127.689 40.2653C127.356 39.8666 127.024 39.5344 126.669 39.2022C126.314 38.8921 125.96 38.6263 125.583 38.427C125.206 38.2277 124.851 38.0948 124.519 38.0505V37.4303H127.866C128.443 37.4303 128.975 37.5411 129.484 37.7404C129.994 37.9397 130.438 38.2055 130.859 38.5377C131.28 38.87 131.657 39.2243 131.989 39.623C132.322 40.0217 132.61 40.4203 132.854 40.7968L137.022 47.109ZM121.659 51.5386V37.4525H123.189V57.7622H121.77L108.779 42.5244V57.6736H107.25V41.1291C107.25 40.7304 107.205 40.376 107.117 40.0438C107.028 39.7116 106.895 39.4237 106.673 39.18C106.452 38.9364 106.163 38.7371 105.809 38.6042C105.454 38.4713 105.011 38.3827 104.479 38.3827H104.324V37.4746H106.474C107.649 37.4746 108.58 37.6297 109.311 37.9397C110.043 38.2498 110.641 38.7149 111.107 39.3129L121.659 51.5386ZM89.3822 50.7191H96.343L92.9513 42.7237L89.3822 50.7191ZM101.952 53.7977C102.328 54.7058 102.772 55.4145 103.304 55.9461C103.836 56.4776 104.457 56.7877 105.144 56.8541V57.6293C104.989 57.6736 104.745 57.6957 104.457 57.74C104.168 57.7622 103.902 57.7843 103.681 57.7843C103.193 57.7843 102.661 57.74 102.107 57.6514C101.553 57.5629 100.998 57.3857 100.444 57.0977C99.9121 56.832 99.4022 56.4333 98.9145 55.9018C98.4268 55.3702 98.0056 54.6836 97.6509 53.7977L96.9415 52.0923H88.7393L86.2121 57.6736H84.6825L93.7271 37.4746H95.1016L101.952 53.7977ZM77.5887 37.4525C78.0321 37.4525 78.5641 37.4746 79.1626 37.5189C79.7612 37.5632 80.3597 37.6518 80.9804 37.8069C81.6011 37.9619 82.1997 38.1612 82.7761 38.427C83.3524 38.6928 83.8845 39.0471 84.35 39.5123C84.8155 39.9774 85.1924 40.5311 85.4584 41.1955C85.7244 41.8599 85.8796 42.6573 85.8796 43.6096C85.8796 44.4955 85.7466 45.2486 85.4584 45.8687C85.1924 46.511 84.8155 47.0426 84.3722 47.4855C83.9288 47.9285 83.4189 48.2829 82.8647 48.5486C82.3105 48.8144 81.7563 49.0137 81.2243 49.1688C80.6922 49.3017 80.1824 49.4124 79.6947 49.4345C79.207 49.4788 78.8301 49.501 78.5198 49.501H75.5936V57.6736H71.6033V41.4391C71.6033 40.5311 71.4703 39.778 71.2264 39.2243C70.9604 38.6706 70.384 38.3827 69.4751 38.3827H69.1648V37.4746H77.5887V37.4525ZM77.5887 38.6706C77.3448 38.6706 77.101 38.6706 76.8571 38.6928C76.6133 38.7149 76.3916 38.7371 76.2143 38.7814C75.9926 38.8257 75.7931 38.8478 75.5936 38.87V48.2386H77.4335C77.9434 48.2386 78.4533 48.1721 78.941 48.0171C79.4508 47.8842 79.8942 47.6184 80.271 47.2419C80.6701 46.8654 80.9804 46.3781 81.2021 45.758C81.446 45.1378 81.5568 44.3627 81.5568 43.4103C81.5568 42.4801 81.446 41.7049 81.2021 41.0848C80.9583 40.4646 80.6701 39.9774 80.2932 39.623C79.9164 39.2465 79.4952 39.0028 79.0296 38.8478C78.5641 38.7592 78.0764 38.6706 77.5887 38.6706ZM65.8617 52.4467C65.8617 54.3071 66.0169 55.7024 66.3273 56.6326C66.6376 57.5629 67.2361 58.1166 68.0785 58.2716V59.0468C65.8617 59.0468 64.2656 58.5374 63.2902 57.4743C62.337 56.4333 61.8493 54.7501 61.8493 52.4467V41.6163L55.1323 57.6514H54.1126L45.9103 40.9962V57.6514H44.3807V37.4525H48.1272L55.5535 52.491L61.8271 37.4525H65.8395V52.4467H65.8617ZM20.8159 47.552C20.8159 46.0459 21.0598 44.6284 21.5253 43.3217C22.013 42.015 22.7002 40.8854 23.587 39.9331C24.4737 38.9807 25.5378 38.2277 26.7792 37.674C28.0206 37.1203 29.395 36.8545 30.9246 36.8545C32.4542 36.8545 33.8508 37.1203 35.0701 37.674C36.3115 38.2277 37.3534 38.9807 38.2401 39.9331C39.1269 40.8854 39.7919 42.015 40.2796 43.3217C40.7673 44.6284 40.989 46.0459 40.989 47.552C40.989 49.058 40.7451 50.4755 40.2796 51.7822C39.7919 53.089 39.1269 54.2185 38.2401 55.1709C37.3534 56.1232 36.3115 56.8763 35.0701 57.43C33.8287 57.9837 32.4542 58.2494 30.9246 58.2494C29.395 58.2494 27.9984 57.9837 26.7792 57.43C25.5378 56.8763 24.4737 56.1232 23.587 55.1709C22.7002 54.2185 22.013 53.089 21.5253 51.7822C21.0598 50.4755 20.8159 49.058 20.8159 47.552ZM36.777 47.552C36.777 44.562 36.2672 42.2807 35.2474 40.6418C34.2277 39.025 32.7868 38.2055 30.9246 38.2055C29.0625 38.2055 27.6216 39.025 26.624 40.6418C25.6043 42.2586 25.1166 44.562 25.1166 47.552C25.1166 50.5419 25.6264 52.8232 26.624 54.4621C27.6437 56.0789 29.0625 56.8984 30.9246 56.8984C32.7868 56.8984 34.2277 56.0789 35.2474 54.4621C36.2672 52.8453 36.777 50.5419 36.777 47.552ZM17.2469 43.9861C16.8478 42.1257 16.1384 40.7082 15.1187 39.7116C14.0768 38.7149 12.7245 38.2277 11.0176 38.2277C10.0865 38.2277 9.1998 38.3827 8.37958 38.6928C7.55936 39.0028 6.84997 39.5344 6.22926 40.2653C5.60855 41.0183 5.14302 41.9928 4.78833 43.2331C4.43364 44.4734 4.27846 46.0238 4.27846 47.862C4.27846 49.0359 4.41147 50.1433 4.65532 51.2507C4.89917 52.3359 5.2982 53.3104 5.83024 54.1521C6.36227 54.9937 7.07166 55.6581 7.91405 56.1675C8.75644 56.6769 9.79834 56.9206 11.0176 56.9206C12.4364 56.9206 13.7443 56.5441 14.9414 55.8132C16.1384 55.0601 17.1138 53.9749 17.8454 52.5574L18.9095 53.3769C17.9562 55.0601 16.7813 56.3226 15.3847 57.1199C13.9881 57.9172 12.2368 58.3159 10.0865 58.3159C8.46825 58.3159 7.02732 58.0501 5.7859 57.5186C4.52231 56.987 3.48041 56.2561 2.61585 55.3038C1.75129 54.3735 1.10841 53.2661 0.665046 52.0037C0.221682 50.7413 0 49.3681 0 47.9063C0 46.356 0.266018 44.9164 0.775887 43.5653C1.28576 42.2365 1.99514 41.0626 2.88187 40.0659C3.79076 39.0693 4.85484 38.2941 6.07409 37.7183C7.31551 37.1424 8.6456 36.8545 10.1087 36.8545C12.0373 36.8545 13.5669 37.0981 14.7419 37.6075C15.9168 38.1169 16.7813 38.6928 17.3577 39.3351C17.7567 39.8666 18.0006 40.5532 18.0671 41.3948C18.1336 42.2365 18.1558 43.1002 18.1558 44.0083H17.2469V43.9861Z" fill="#428FBC"/>
<path fill-rule="evenodd" clip-rule="evenodd" d="M127.778 63.6739C128.576 69.1002 134.805 81.9017 138.839 71.16C140.879 65.7116 144.182 55.7007 152.074 57.4282C140.546 56.6309 143.251 87.7045 133.142 83.4964C129.152 81.8353 124.94 75.6339 120.772 63.6739H127.778Z" fill="#231F20"/>
<path fill-rule="evenodd" clip-rule="evenodd" d="M175.639 17.5195C188.829 19.0477 175.75 66.5995 168.922 68.5928C164.887 69.7666 163.712 55.5476 159.655 53.5765C163.934 53.355 165.131 55.5255 168.212 55.8356C176.126 56.6329 181.801 22.4364 175.639 17.5195Z" fill="#428FBC"/>
</svg>
